<svg width="126" height="132" xmlns="http://www.w3.org/2000/svg" xmlns:xlink="http://www.w3.org/1999/xlink" xml:space="preserve" overflow="hidden"><defs><linearGradient x1="114.527" y1="101.904" x2="36.0651" y2="34.2956" gradientUnits="userSpaceOnUse" spreadMethod="pad" id="fill0"><stop offset="0" stop-color="#FF347D" stop-opacity="1"/><stop offset="1" stop-color="#9D0063" stop-opacity="1"/></linearGradient><linearGradient x1="27.6362" y1="54.4093" x2="41.0182" y2="-5.85269" gradientUnits="userSpaceOnUse" spreadMethod="pad" id="fill1"><stop offset="0" stop-color="#FF347D" stop-opacity="1"/><stop offset="1" stop-color="#9D0063" stop-opacity="1"/></linearGradient><linearGradient x1="115.131" y1="22.3775" x2="69.495" y2="100.155" gradientUnits="userSpaceOnUse" spreadMethod="pad" id="fill2"><stop offset="0" stop-color="#FF347D" stop-opacity="1"/><stop offset="1" stop-color="#9D0063" stop-opacity="1"/></linearGradient><linearGradient x1="96.0407" y1="13.5089" x2="96.0407" y2="40.7916" gradientUnits="userSpaceOnUse" spreadMethod="pad" id="fill3"><stop offset="0" stop-color="#FF347D" stop-opacity="1"/><stop offset="1" stop-color="#9D0063" stop-opacity="1"/></linearGradient></defs><g transform="translate(-34 -254)"><g><g><g><g><path d="M52.3815 48.2911C52.3815 48.2911 72.2879 26.8477 55.4058 11.7257 35.8217-5.82567 1.7601 9.46981 2.80128 42.9116 3.86725 76.5022 39.0444 114.208 56.3231 118.992 73.6018 123.777 108.11 97.7225 117.406 74.3703 125.76 53.3731 119.339 30.2439 106.82 24.7157 86.1951 15.6425 72.5358 30.7893 70.9244 46.0848 88.9468 24.9636 107.539 39.4906 105.308 57.8848 103.201 75.2627 71.2963 106.548 59.1739 101.069 44.5478 94.475 24.1703 65.7433 21.7657 46.6797 19.5842 29.3762 29.5994 18.2703 42.4158 23.1292 55.2075 27.988 52.3815 48.2911 52.3815 48.2911L52.3815 48.2911Z" fill="url(#fill0)" fill-rule="nonzero" transform="matrix(1 0 0 1.00999 33.2399 260.935)"/><path d="M36.5406 4.38785C19.4354 4.21431 2.05758 18.89 2.80128 42.9116 3.22271 56.447 9.17233 70.6269 17.2787 83.0716 16.3615 76.0064 16.1631 68.1479 17.1795 59.6202 18.6421 47.3491 20.5262 39.4906 22.4102 34.4086 25.0876 24.6166 32.9708 19.5842 42.391 23.1539 55.2075 28.0128 52.3815 48.2911 52.3815 48.2911 52.3815 48.2911 72.2879 26.8477 55.4058 11.7257 49.9024 6.79248 43.2339 4.43743 36.5406 4.38785Z" fill="url(#fill1)" fill-rule="nonzero" transform="matrix(1 0 0 1.00999 33.2399 260.935)"/><path d="M94.3263 22.0136C80.7909 22.3111 72.1639 34.1607 70.8996 46.1096 88.922 24.9884 107.515 39.5154 105.283 57.9096 103.176 75.2875 71.2715 106.573 59.1491 101.094 54.5134 99.0116 49.2827 94.6733 44.2503 89.1451 51.6377 98.8381 64.95 108.06 88.9468 107.911 101.243 99.0364 112.646 86.3687 117.406 74.395 125.76 53.3978 119.339 30.2687 106.82 24.7653 102.309 22.7573 98.1191 21.9392 94.3263 22.0136Z" fill="url(#fill2)" fill-rule="nonzero" transform="matrix(1 0 0 1.00999 33.2399 260.935)"/><path d="M94.3263 22.0136C80.7909 22.3111 72.1639 34.1607 70.8996 46.1096 75.461 40.7797 80.0472 37.7305 84.3111 36.4166 84.7573 36.2679 85.2035 36.1439 85.6993 36.0448 85.9472 35.9952 86.1951 35.9456 86.443 35.9208 86.5918 35.896 86.7157 35.8713 86.8645 35.8465 88.1783 35.6481 89.4674 35.6234 90.6821 35.7473 93.2851 35.9208 96.2847 36.5902 99.7801 37.9288 111.531 42.4654 117.802 50.423 121.1 56.7197 121.67 41.8457 115.819 28.7069 106.796 24.7405 102.309 22.7573 98.1191 21.9392 94.3263 22.0136Z" fill="url(#fill3)" fill-rule="nonzero" transform="matrix(1 0 0 1.00999 33.2399 260.935)"/></g></g></g></g></g></svg>